<?xml version="1.0" encoding="UTF-8"?>
<svg width="319px" height="55px" viewBox="0 0 319 55" version="1.1" xmlns="http://www.w3.org/2000/svg" xmlns:xlink="http://www.w3.org/1999/xlink">
    <!-- Generator: Sketch 46.2 (44496) - http://www.bohemiancoding.com/sketch -->
    <defs>
        <polygon id="path-1" points="0 19.3822285 0 0.590345782 18.7434444 0.590345782 18.7434444 19.3822285"></polygon>
        <polygon id="path-3" points="54.9337622 54.2638789 0.623204989 54.2638789 0.623204989 0.00776274934 54.9337622 0.00776274934 54.9337622 54.2638789"></polygon>
    </defs>
    <g id="Page-1" stroke="none" stroke-width="1" fill="none" fill-rule="evenodd">
        <g id="Logo_sizing_mega-nav" transform="translate(-90.000000, -836.000000)">
            <g id="Page-1" transform="translate(90.000000, 836.000000)">
                <g id="Group-3" transform="translate(0.000000, 20.341192)">
                    <mask id="mask-2" fill="white">
                        <use xlink:href="#path-1"></use>
                    </mask>
                    <g id="Clip-2"></g>
                    <path d="M13.9641818,13.8412835 C13.9641818,16.897395 12.9398386,18.3602588 9.37198623,18.3602588 L7.14905582,18.3602588 L7.14905582,9.79937823 L9.51756667,9.79937823 C12.7588059,9.79937823 13.9641818,10.9441953 13.9641818,13.8412835 M18.7434444,14.1593302 C18.7434444,10.5997704 15.8408872,9.32080096 12.3175387,9.24015881 L12.3175387,9.10751377 C15.3121209,8.86860197 17.7741653,7.60847412 17.7741653,4.58100187 C17.7741653,1.21890238 14.9892793,0.590345782 11.8762716,0.590345782 C8.1319124,0.590345782 3.73508127,0.692090555 -0.000226290846,0.590345782 L-0.000226290846,1.53016602 C0.79480888,1.47740947 2.70696653,1.58367623 2.70696653,2.57399202 L2.70696653,17.3503477 C2.70696653,18.3075022 0.737481866,18.4680329 -0.000226290846,18.4680329 L-0.000226290846,19.3822285 C3.61891863,19.2729471 7.89656992,19.3822285 11.5217493,19.3822285 C15.3385215,19.3822285 18.7434444,18.0655758 18.7434444,14.1593302 M13.2053532,5.14398962 C13.2053532,7.50070002 12.171204,8.81433809 9.45873106,8.81433809 L7.14905582,8.81433809 L7.14905582,1.58367623 C7.44323392,1.55654429 8.4275991,1.53016602 8.7210229,1.53016602 L9.51756667,1.53016602 C12.2873666,1.53016602 13.2053532,2.76240827 13.2053532,5.14398962" id="Fill-1" fill="#0078C1" mask="url(#mask-2)"></path>
                </g>
                <path d="M42.8972767,39.6921432 C41.2219702,39.6921432 39.5459093,39.6687796 37.8706027,39.7215362 L37.8706027,38.7809623 C38.6354658,38.7809623 40.7475137,38.7282057 40.7475137,37.6889017 L40.7475137,23.9239644 L40.6901867,23.9239644 L32.9917721,39.9348234 L32.1982455,39.9348234 L24.7072643,23.9239644 L24.6484286,23.9239644 L24.6484286,37.6889017 C24.6484286,38.7575987 26.8532558,38.7809623 27.646028,38.7809623 L27.6762001,39.7215362 C25.5867813,39.636372 22.7317452,39.5843691 20.6717442,39.7215362 L20.6717442,38.7809623 C21.4690423,38.7809623 23.3796913,38.7033348 23.3796913,37.6889017 L23.3796913,22.9359096 C23.3796913,21.9493622 21.4102066,21.8702273 20.6717442,21.8702273 L20.6453436,20.9311608 C23.0274319,21.0336592 25.5867813,21.0336592 27.9688696,20.9311608 L34.3744092,34.3531805 L40.895357,20.9590464 C43.1922091,21.0585302 45.6625509,21.0336592 47.9548771,20.9311608 L47.9548771,21.8702273 C47.1900141,21.8702273 45.1926202,21.9244912 45.1926202,22.9359096 L45.1926202,37.6889017 C45.1926202,38.7282057 47.1621049,38.7809623 47.9548771,38.7809623 L47.9548771,39.7215362 C46.278062,39.6687796 44.5740919,39.6921432 42.8972767,39.6921432" id="Fill-4" fill="#0078C1"></path>
                <path d="M70.5832828,30.2919814 C70.5832828,24.0840429 66.7861224,20.6028643 59.94007,20.6028643 C53.0917548,20.6028643 49.2659309,24.0561573 49.2659309,30.2919814 C49.2659309,36.5285591 53.0593197,40.008984 59.94007,40.008984 C66.8140316,40.008984 70.5832828,36.5285591 70.5832828,30.2919814 M65.6101643,30.2919814 C65.6101643,33.9615762 65.2548877,39.0706711 59.94007,39.0706711 C54.6214809,39.0706711 54.238295,33.9615762 54.238295,30.2919814 C54.238295,26.6284159 54.6214809,21.5419309 59.94007,21.5419309 C65.2269785,21.5419309 65.6101643,26.6525331 65.6101643,30.2919814" id="Fill-6" fill="#0078C1"></path>
                <g id="Group-10" transform="translate(81.464704, 0.745902)">
                    <mask id="mask-4" fill="white">
                        <use xlink:href="#path-3"></use>
                    </mask>
                    <g id="Clip-9"></g>
                    <path d="M27.7750892,0.00776274934 C12.7863379,0.00776274934 0.623204989,12.1568423 0.623204989,27.1381949 C0.623204989,42.1210547 12.7863379,54.264105 27.7750892,54.264105 C42.777418,54.264105 54.9337622,42.1210547 54.9337622,27.1381949 C54.9337622,12.1568423 42.777418,0.00776274934 27.7750892,0.00776274934" id="Fill-8" fill="#ED3124" mask="url(#mask-4)"></path>
                </g>
                <path d="M108.413304,19.6033538 L103.698911,13.4632452 C103.507319,13.2107674 103.204089,13.0472221 102.86239,13.0472221 C102.530496,13.0472221 102.23481,13.2017234 102.041708,13.4421426 L96.4304495,20.5085055 L96.4304495,31.5828587 L102.010027,24.437361 C102.207655,24.1856369 102.516165,24.0235989 102.86239,24.0235989 C103.212386,24.0235989 103.523913,24.1901589 103.722295,24.4471587 L108.459317,30.6362555 C108.638841,30.87366 108.923213,31.026654 109.243037,31.026654 C109.562107,31.026654 109.846479,30.87366 110.026758,30.6362555 L114.763025,24.4471587 C114.962161,24.1901589 115.272934,24.0235989 115.623685,24.0235989 C115.96991,24.0235989 116.277665,24.1856369 116.475293,24.437361 L122.054871,31.5828587 L122.054871,20.5085055 L116.443612,13.4421426 C116.251265,13.2017234 115.954824,13.0472221 115.623685,13.0472221 C115.281231,13.0472221 114.978001,13.2107674 114.786409,13.4632452 L110.072016,19.6033538 C109.880423,19.8505559 109.580211,20.0095792 109.243037,20.0095792 C108.90511,20.0095792 108.604897,19.8505559 108.413304,19.6033538 L108.413304,19.6033538 Z M96.4304495,39.7066136 L122.054871,39.7066136 L122.054871,31.5828587 L96.4304495,31.5828587 L96.4304495,39.7066136 Z" id="Fill-11" fill="#FEFEFE"></path>
                <path d="M161.058738,39.7319367 L161.058738,38.8328144 C161.808515,38.8328144 163.848904,38.8328144 163.848904,37.8244107 L163.848904,30.2741949 L154.607186,30.2741949 L154.607186,37.8244107 C154.607186,38.8328144 156.647575,38.8328144 157.397352,38.8328144 L157.397352,39.7319367 C154.426907,39.6226553 150.975972,39.6226553 148.006282,39.7319367 L148.006282,38.8328144 C148.756059,38.8328144 150.796448,38.8328144 150.796448,37.8244107 L150.796448,22.4255277 C150.796448,21.417124 148.725887,21.417124 148.006282,21.417124 L148.006282,20.517248 C150.946554,20.6265294 154.457834,20.6265294 157.397352,20.517248 L157.397352,21.417124 C156.647575,21.417124 154.607186,21.417124 154.607186,22.4255277 L154.607186,29.2936767 L163.848904,29.2936767 L163.848904,22.4255277 C163.848904,21.4435022 161.779097,21.417124 161.058738,21.417124 L161.058738,20.517248 C163.99901,20.6265294 167.51029,20.6265294 170.450562,20.517248 L170.450562,21.417124 C169.700785,21.417124 167.62947,21.417124 167.62947,22.4255277 L167.62947,37.8244107 C167.62947,38.8328144 169.700785,38.8328144 170.450562,38.8328144 L170.450562,39.7319367 C167.479363,39.6226553 164.029182,39.6226553 161.058738,39.7319367" id="Fill-13" fill="#0078C1"></path>
                <path d="M180.919606,32.5102435 C178.069096,32.754431 175.758667,32.9458619 175.758667,36.162504 C175.758667,37.4693591 176.208231,38.7777215 177.918236,38.7777215 C180.289009,38.7777215 180.919606,36.8159316 180.919606,35.0169332 L180.919606,32.5102435 Z M183.13952,39.7861253 C182.029186,39.7861253 180.949024,39.6233336 180.949024,38.3971207 C179.628994,39.5419378 178.308964,40.0039344 176.477517,40.0039344 C173.568171,40.0039344 172.098035,38.6691938 172.098035,36.025337 C172.098035,31.528218 177.588605,31.8289304 180.919606,31.6096138 L180.919606,29.5385425 C180.919606,28.0666348 180.169829,27.2489082 178.488489,27.2489082 C176.568788,27.2489082 175.999289,28.1208986 175.999289,29.7299734 C175.999289,30.4376648 175.39811,30.5748318 174.769021,30.5748318 C173.80804,30.6012101 173.117098,30.5469462 173.117098,29.4571466 C173.117098,26.8946857 176.089051,26.3497859 178.338382,26.3497859 C181.848908,26.3497859 184.369788,26.8132899 184.369788,30.4919287 L184.369788,36.7337821 C184.369788,38.5870443 184.549312,38.8327391 186.621381,38.8606247 L186.621381,39.7318614 C185.449949,39.7318614 184.280026,39.7861253 183.13952,39.7861253 L183.13952,39.7861253 Z" id="Fill-15" fill="#0078C1"></path>
                <path d="M198.200759,30.5746057 C195.5607,30.5746057 197.659924,27.6843005 195.859404,27.6843005 C193.911039,27.6843005 193.430548,31.0102241 193.430548,32.2907009 L193.430548,37.8241092 C193.430548,38.8603986 195.169971,38.8603986 195.951428,38.8603986 L195.951428,39.7316353 C193.189926,39.6509931 190.339416,39.6231075 187.578667,39.7316353 L187.578667,38.8603986 C188.328444,38.8603986 189.949441,38.8061347 189.949441,37.8241092 L189.949441,28.5299126 C189.949441,27.5493945 188.359371,27.4943769 187.578667,27.4664913 L187.549249,26.6495185 C189.46895,26.6495185 191.419577,26.6766504 193.340786,26.5952546 L193.340786,28.6670796 L193.399622,28.639194 C194.119981,27.3579636 195.350249,26.3495598 196.999909,26.3495598 C198.741595,26.3495598 199.791584,27.3036997 199.791584,28.8848888 C199.791584,29.9211782 199.491372,30.5746057 198.200759,30.5746057" id="Fill-17" fill="#0078C1"></path>
                <path d="M212.211331,30.5746057 C209.571271,30.5746057 211.670496,27.6843005 209.870729,27.6843005 C207.921611,27.6843005 207.44112,31.0102241 207.44112,32.2907009 L207.44112,37.8241092 C207.44112,38.8603986 209.181296,38.8603986 209.962,38.8603986 L209.962,39.7316353 C207.201252,39.6509931 204.349987,39.6231075 201.589239,39.7316353 L201.589239,38.8603986 C202.339016,38.8603986 203.960012,38.8061347 203.960012,37.8241092 L203.960012,28.5299126 C203.960012,27.5493945 202.369942,27.4943769 201.589239,27.4664913 L201.559821,26.6495185 C203.479521,26.6495185 205.430149,26.6766504 207.351358,26.5952546 L207.351358,28.6670796 L207.410193,28.639194 C208.130553,27.3579636 209.360821,26.3495598 211.010481,26.3495598 C212.752166,26.3495598 213.802156,27.3036997 213.802156,28.8848888 C213.802156,29.9211782 213.501943,30.5746057 212.211331,30.5746057" id="Fill-19" fill="#0078C1"></path>
                <path d="M219.651246,24.0871329 C218.420978,24.0871329 217.671201,23.2158962 217.671201,22.1524749 C217.671201,21.0890536 218.451904,20.2441951 219.651246,20.2441951 C220.852096,20.2441951 221.632799,21.1161855 221.632799,22.1524749 C221.632799,23.2158962 220.852096,24.0871329 219.651246,24.0871329 M215.54105,39.7317106 L215.54105,38.8604739 C216.290827,38.8604739 217.911069,38.7783244 217.911069,37.8241846 L217.911069,28.4749704 C217.911069,27.5758481 216.230483,27.5494698 215.54105,27.5215842 L215.54105,26.6495938 C217.462259,26.6495938 219.471722,26.7309897 221.392931,26.6217082 L221.392931,37.8241846 C221.392931,38.7783244 223.042591,38.8604739 223.792368,38.8604739 L223.792368,39.7317106 C221.091964,39.6231829 218.241454,39.6231829 215.54105,39.7317106" id="Fill-21" fill="#0078C1"></path>
                <path d="M230.812589,40.0042359 C229.162175,40.0042359 227.45217,39.7321628 225.892272,39.2415269 L225.892272,35.18078 L227.24172,35.18078 C227.302064,37.279737 228.262291,39.1593775 230.872933,39.1593775 C232.401905,39.1593775 234.022902,38.5059499 234.022902,36.9247608 C234.022902,33.7088723 226.13214,35.2086656 226.13214,30.5201157 C226.13214,27.5212828 228.651512,26.3493337 231.622711,26.3493337 C233.092847,26.3493337 234.503393,26.6221604 235.883767,27.0856644 L235.883767,30.5201157 L234.653499,30.5201157 C234.442294,28.611836 233.721935,27.2492097 231.382842,27.2492097 C229.942124,27.2492097 228.922306,27.7941095 228.922306,29.1853751 C228.922306,32.3733779 236.843995,30.4658519 236.843995,35.7528117 C236.843995,38.8322869 233.721935,40.0042359 230.812589,40.0042359" id="Fill-23" fill="#0078C1"></path>
                <path d="M255.174232,29.9210274 L252.594516,29.9210274 L252.594516,38.7517201 L254.514217,38.7517201 C257.93498,38.7517201 259.675157,37.3604545 259.675157,34.1988299 C259.675157,31.2557681 258.505233,29.9210274 255.174232,29.9210274 M254.96529,21.44305 C254.184587,21.44305 253.373711,21.44305 252.594516,21.5259532 L252.594516,28.939002 L255.08447,28.939002 C257.8158,28.939002 258.745102,27.6035076 258.745102,25.2324776 C258.745102,22.6971486 257.874636,21.44305 254.96529,21.44305 M256.28532,39.7322382 C252.863802,39.7322382 249.413621,39.6229568 245.992858,39.7322382 L245.992858,38.8323622 C246.682291,38.8323622 248.783024,38.7517201 248.783024,37.8239585 L248.783024,22.4250755 C248.783024,21.4716893 246.713217,21.3887862 245.992858,21.4166718 L245.96344,20.5175494 C249.532801,20.6260772 253.133843,20.5175494 256.704712,20.5175494 C260.094549,20.5175494 262.736118,21.308144 262.736118,24.8232375 C262.736118,27.6849034 260.635384,28.939002 257.755456,29.2939782 L257.755456,29.4032596 C261.326326,29.6210688 263.786862,30.9015456 263.786862,34.4181464 C263.786862,38.3967439 260.094549,39.7322382 256.28532,39.7322382" id="Fill-25" fill="#0078C1"></path>
                <path d="M275.726042,32.5102435 C272.875532,32.754431 270.565102,32.9458619 270.565102,36.162504 C270.565102,37.4693591 271.016175,38.7777215 272.72618,38.7777215 C275.096953,38.7777215 275.726042,36.8159316 275.726042,35.0169332 L275.726042,32.5102435 Z M277.945955,39.7861253 C276.83713,39.7861253 275.756968,39.6233336 275.756968,38.3971207 C274.436938,39.5419378 273.1154,40.0039344 271.285461,40.0039344 C268.374607,40.0039344 266.904471,38.6691938 266.904471,36.025337 C266.904471,31.528218 272.396549,31.8289304 275.726042,31.6096138 L275.726042,29.5385425 C275.726042,28.0666348 274.976265,27.2489082 273.296433,27.2489082 C271.375223,27.2489082 270.805725,28.1208986 270.805725,29.7299734 C270.805725,30.4376648 270.206054,30.5748318 269.575457,30.5748318 C268.614475,30.6012101 267.925042,30.5469462 267.925042,29.4571466 C267.925042,26.8946857 270.895487,26.3497859 273.146326,26.3497859 C276.656852,26.3497859 279.177732,26.8132899 279.177732,30.4919287 L279.177732,36.7337821 C279.177732,38.5870443 279.357256,38.8327391 281.427817,38.8606247 L281.427817,39.7318614 C280.257893,39.7318614 279.086461,39.7861253 277.945955,39.7861253 L277.945955,39.7861253 Z" id="Fill-27" fill="#0078C1"></path>
                <path d="M292.16743,39.7319367 L292.16743,38.8870783 C292.917207,38.8607 294.357925,38.7777969 294.357925,37.8244107 L294.357925,30.820602 C294.357925,29.1301314 294.028295,27.7124876 291.837799,27.7124876 C289.316919,27.7124876 288.416282,29.6750312 288.416282,31.6654604 L288.416282,37.8244107 C288.416282,38.6971547 289.91659,38.8607 290.607531,38.8607 L290.636949,39.7055585 C288.026307,39.596277 285.175043,39.6226553 282.565155,39.7319367 L282.565155,38.8870783 C283.345858,38.8607 284.935174,38.8328144 284.935174,37.8244107 L284.935174,28.557346 C284.935174,27.5760742 283.345858,27.5210567 282.565155,27.4946784 L282.565155,26.6498199 C284.48561,26.6498199 286.40531,26.6761982 288.32652,26.5955561 L288.32652,28.5294604 L288.386864,28.5294604 C289.767238,27.0311744 291.146858,26.3498613 293.337353,26.3498613 C296.60801,26.3498613 297.838278,27.7946371 297.838278,30.6555493 L297.838278,37.8244107 C297.838278,38.7777969 299.429103,38.8607 300.17888,38.8607 L300.17888,39.7319367 C297.568238,39.6505409 294.778072,39.6226553 292.16743,39.7319367" id="Fill-29" fill="#0078C1"></path>
                <path d="M311.008783,39.7054077 L311.008783,38.8605493 C311.248651,38.8605493 312.088944,38.8869276 311.998428,38.5055731 C311.908666,38.1242186 311.278069,37.5785652 310.948438,37.1429468 C310.108899,36.1081648 309.298024,35.0718754 308.427558,34.0634717 C308.398141,34.0355861 308.037584,33.4906863 308.037584,33.4906863 L306.838242,34.5533539 L306.838242,37.9064094 C306.838242,38.996209 308.368723,38.8605493 309.177335,38.8605493 L309.177335,39.731786 C306.507858,39.6232583 303.686765,39.6232583 301.017288,39.731786 L301.017288,38.8605493 C301.736138,38.8605493 303.356381,38.7512679 303.356381,37.8242599 L303.356381,21.7161782 C303.356381,20.7356601 301.8259,20.6806425 301.046705,20.6527569 L301.017288,19.8078985 C302.936988,19.8078985 304.917033,19.8621624 306.838242,19.7536346 L306.807316,33.2992554 C306.807316,33.2992554 311.608453,28.2029727 311.608453,27.7123368 C311.608453,27.4945277 310.498874,27.4402638 310.288423,27.4402638 L310.288423,26.6496692 L316.230067,26.6496692 L316.230067,27.4123782 L315.868756,27.4123782 C315.208741,27.4123782 313.859293,27.4402638 313.379556,27.8487502 C312.178706,28.8564003 310.198661,31.228184 310.198661,31.228184 L315.689232,37.7699961 C316.288902,38.4776875 317.24913,38.8605493 318.180694,38.8869276 L318.180694,39.731786 C315.80992,39.5961263 313.34863,39.7054077 311.008783,39.7054077" id="Fill-31" fill="#0078C1"></path>
                <path d="M139.128289,15.1712008 C137.619683,15.1712008 136.396204,13.9261462 136.396204,12.3931916 C136.396204,10.8594834 137.619683,9.6174435 139.128289,9.6174435 C140.637648,9.6174435 141.861882,10.8594834 141.861882,12.3931916 C141.861882,13.9261462 140.637648,15.1712008 139.128289,15.1712008 M139.128289,9.16825917 C137.346625,9.16825917 135.903644,10.6122813 135.903644,12.3931916 C135.903644,14.1733483 137.346625,15.6173704 139.128289,15.6173704 C140.909198,15.6173704 142.352933,14.1733483 142.352933,12.3931916 C142.352933,10.6122813 140.909198,9.16825917 139.128289,9.16825917" id="Fill-33" fill="#0078C1"></path>
                <path d="M138.410871,12.2124628 L138.410871,10.9304786 L139.186294,10.9304786 C139.844046,10.9304786 140.143505,11.1249242 140.143505,11.5733549 C140.143505,12.0210319 139.844046,12.2124628 139.186294,12.2124628 L138.410871,12.2124628 M140.621733,11.5884282 C140.621733,10.8701854 140.203849,10.5430948 139.396745,10.5430948 L137.962815,10.5430948 L137.962815,14.2435899 L138.410871,14.2435899 L138.410871,12.6028612 L139.186294,12.6028612 L140.231758,14.2435899 L140.771085,14.2435899 L139.664522,12.6028612 C140.258159,12.5086531 140.621733,12.1031814 140.621733,11.5884282" id="Fill-35" fill="#0078C1"></path>
            </g>
        </g>
    </g>
</svg>